<?xml version="1.0" encoding="utf-8"?>
<!-- Generator: Adobe Illustrator 20.1.0, SVG Export Plug-In . SVG Version: 6.00 Build 0)  -->
<!DOCTYPE svg PUBLIC "-//W3C//DTD SVG 1.1//EN" "http://www.w3.org/Graphics/SVG/1.1/DTD/svg11.dtd">
<svg version="1.1" id="Layer_1" xmlns="http://www.w3.org/2000/svg" xmlns:xlink="http://www.w3.org/1999/xlink" x="0px" y="0px"
	 width="50px" height="50px" viewBox="0 0 50 50" style="enable-background:new 0 0 50 50;" xml:space="preserve">
<style type="text/css">
	.st0{fill:#FFFFFF;}
</style>
<title>Asset 1</title>
<g id="Layer_2">
	<g id="Layer_1-2">
		<g>
			<path class="st0" d="M35.2,19.9c0,0.2,0,0.5,0,0.7c0,8.2-6.6,14.8-14.8,14.8c-2.8,0-5.6-0.8-7.9-2.3c0.4,0,0.8,0.1,1.3,0.1
				c2.3,0,4.6-0.8,6.4-2.2c-2.2,0-4.2-1.5-4.9-3.6c0.3,0.1,0.7,0.1,1,0.1c0.5,0,0.9-0.1,1.4-0.2c-2.5-0.6-4.3-2.8-4.3-5.2V22
				c0.7,0.4,1.5,0.6,2.4,0.7c-2.4-1.6-3.1-4.7-1.7-7c2.6,3.3,6.5,5.2,10.7,5.4c-0.1-0.4-0.1-0.8-0.1-1.2c0-2.9,2.3-5.2,5.2-5.2
				c1.4,0,2.8,0.6,3.8,1.7c1.2-0.2,2.3-0.7,3.3-1.3c-0.4,1.2-1.2,2.2-2.3,2.9c1-0.1,2-0.4,3-0.8C37,18.2,36.2,19.1,35.2,19.9z"/>
		</g>
	</g>
</g>
</svg>
